#!OML:ASF F:\VICON\USERDATA\INSTALL\rory3\rory3.ASF
:FULLY-SPECIFIED
:DEGREES


378
root 0.177334 17.6691 39.8146 -3.50333 -6.03743 -4.78671
lowerback 9.99263 2.45709 4.07873
upperback 0.385418 3.81569 1.59838
thorax -5.04302 1.80316 -1.15668
lowerneck -16.1969 -3.36253 -1.95305
upperneck 20.6996 -4.6778 2.16195
head 9.29037 -2.09777 0.472003
rclavicle 4.88133e-014 1.26228e-014
rhumerus -23.4305 -15.3851 -81.0264
rradius 33.385
rwrist 3.90383
rhand -18.756 24.6501
rfingers 7.12502
rthumb 7.54062 -5.19544
lclavicle 4.88133e-014 1.26228e-014
lhumerus -38.8121 16.3993 74.6093
lradius 16.366
lwrist -3.05936
lhand -24.8173 27.5001
lfingers 7.12502
lthumb 1.68803 57.4731
rfemur 1.5283 1.82178 27.3631
rtibia 57.1451
rfoot 17.5582 1.31226
rtoes 4.14939
lfemur -21.644 -0.194115 -17.4025
ltibia 31.9393
lfoot -4.25496 -2.8116
ltoes 3.63833
379
root 0.195115 17.6884 40.0094 -3.74144 -6.00812 -3.7602
lowerback 10.1362 2.51085 3.19246
upperback 0.254267 3.78287 1.31593
thorax -5.29955 1.79879 -0.964151
lowerneck -15.8318 -3.38419 -1.99414
upperneck 20.74 -4.67981 2.05643
head 9.2353 -2.11727 0.448185
rclavicle -1.46969e-014 6.73383e-015
rhumerus -23.9546 -15.4933 -80.9359
rradius 33.0891
rwrist 4.21147
rhand -18.7997 24.8614
rfingers 7.12502
rthumb 7.49845 -4.98573
lclavicle -1.46969e-014 6.73383e-015
lhumerus -38.9793 15.5759 74.9618
lradius 16.8141
lwrist -2.14021
lhand -25.3818 26.9628
lfingers 7.12502
lthumb 1.14278 56.9395
rfemur 0.15405 1.31771 25.8796
rtibia 59.5866
rfoot 20.6767 1.15061
rtoes 7.4629
lfemur -20.6231 -0.216497 -18.7197
ltibia 31.6244
lfoot -4.59336 -2.71657
ltoes 4.12526
380
root 0.214846 17.7174 40.2076 -3.91518 -5.75783 -2.30836
lowerback 10.0974 2.4827 1.82931
upperback 0.269619 3.56491 0.930421
thorax -5.32628 1.72124 -0.572213
lowerneck -15.6648 -3.21658 -1.8612
upperneck 20.4413 -4.4345 1.88526
head 9.08802 -2.01534 0.403487
rclavicle -5.66536e-014 -5.2181e-015
rhumerus -24.1668 -15.6645 -80.9903
rradius 32.8694
rwrist 4.8635
rhand -19.0113 25.0271
rfingers 7.12502
rthumb 7.29427 -4.82721
lclavicle -5.66536e-014 -5.2181e-015
lhumerus -38.6896 13.8779 76.068
lradius 17.3917
lwrist 0.507734
lhand -26.5536 25.6181
lfingers 7.12502
lthumb 0.0110886 55.5978
rfemur -1.31079 0.53433 23.8593
rtibia 61.9345
rfoot 22.8838 0.685488
rtoes 11.8457
lfemur -19.6351 -0.448143 -20.5407
ltibia 31.2368
lfoot -5.00248 -2.38633
ltoes 4.13758
381
root 0.230715 17.7429 40.404 -4.02354 -5.50992 -1.91088
lowerback 9.95434 2.29283 1.48397
upperback 0.444218 3.26166 0.855079
thorax -5.08332 1.58318 -0.403429
lowerneck -15.7993 -3.12792 -2.08437
upperneck 20.221 -4.30372 2.13599
head 9.04547 -1.94447 0.541177
rclavicle 7.4816e-015 1.5704e-014
rhumerus -24.2244 -15.4615 -81.2001
rradius 32.902
rwrist 5.24093
rhand -19.2591 25.0471
rfingers 7.12502
rthumb 7.055 -4.81532
lclavicle 7.4816e-015 1.5704e-014
lhumerus -38.2384 12.4254 77.1317
lradius 18.045
lwrist 3.16667
lhand -28.569 24.9013
lfingers 7.12502
lthumb -1.9355 54.8722
rfemur -2.73186 -0.326014 23.1111
rtibia 64.11
rfoot 23.5508 -0.923661
rtoes 16.9275
lfemur -18.678 -0.508804 -21.1878
ltibia 30.9706
lfoot -5.63178 -2.20467
ltoes 3.03067
382
root 0.229973 17.7538 40.5795 -4.20207 -5.45598 -2.14876
lowerback 10.1796 2.17373 1.56875
upperback 0.484699 3.12423 0.990459
thorax -5.1723 1.5138 -0.299517
lowerneck -15.5956 -3.30303 -2.87328
upperneck 20.1352 -4.5548 3.03227
head 9.02713 -2.02794 0.948108
rclavicle 1.59727e-014 -3.97569e-016
rhumerus -24.4027 -15.2178 -81.3408
rradius 32.7867
rwrist 5.37316
rhand -19.2855 25.0633
rfingers 7.12502
rthumb 7.02952 -4.8
lclavicle 1.59727e-014 -3.97569e-016
lhumerus -38.0037 12.1136 77.2729
lradius 18.3281
lwrist 3.08975
lhand -30.8051 26.3639
lfingers 7.12502
lthumb -4.09492 56.3043
rfemur -4.16786 -1.00225 23.3368
rtibia 66.1814
rfoot 22.8747 -2.88014
rtoes 19.2724
lfemur -17.7546 -0.462824 -20.9996
ltibia 30.8834
lfoot -6.26148 -2.14506
ltoes 2.96759
383
root 0.225533 17.7581 40.7435 -4.2662 -5.48591 -2.24613
lowerback 10.4327 2.08837 1.46462
upperback 0.445112 3.00975 1.07481
thorax -5.36724 1.45841 -0.148283
lowerneck -15.4631 -3.45202 -3.33975
upperneck 20.2155 -4.73762 3.40744
head 9.05852 -2.10992 1.13164
rclavicle -3.83453e-014 -1.92821e-014
rhumerus -24.5607 -15.2509 -81.5274
rradius 32.5964
rwrist 5.81681
rhand -19.2993 24.653
rfingers 7.12502
rthumb 7.01628 -5.21072
lclavicle -3.83453e-014 -1.92821e-014
lhumerus -37.701 12.493 76.9562
lradius 18.2786
lwrist 2.15469
lhand -31.9736 27.1863
lfingers 7.12502
lthumb -5.22323 57.1019
rfemur -5.83974 -1.5968 23.5037
rtibia 68.1529
rfoot 21.2187 -4.82285
rtoes 20.4681
lfemur -17.0061 -0.476914 -20.9227
ltibia 30.9368
lfoot -6.88438 -1.89777
ltoes 3.19443
384
root 0.230521 17.7712 40.9177 -4.16116 -5.34391 -2.09061
lowerback 10.3074 1.99396 1.3063
upperback 0.424864 2.86113 1.03338
thorax -5.32521 1.38918 -0.0765543
lowerneck -15.4883 -3.40932 -2.96784
upperneck 20.3682 -4.63679 2.80147
head 9.08688 -2.09869 0.8756
rclavicle 3.57812e-015 1.82882e-014
rhumerus -24.831 -15.487 -81.5771
rradius 32.4417
rwrist 6.41418
rhand -19.2403 24.7763
rfingers 7.12502
rthumb 7.07315 -5.08548
lclavicle 3.57812e-015 1.82882e-014
lhumerus -37.2078 12.3453 76.9416
lradius 18.2066
lwrist 2.06887
lhand -32.9997 22.7636
lfingers 7.12502
lthumb -6.21396 52.6525
rfemur -7.57565 -2.39266 23.2923
rtibia 69.8678
rfoot 18.9685 -6.47608
rtoes 22.1696
lfemur -16.4916 -0.573863 -21.1829
ltibia 30.8577
lfoot -7.38286 -1.71216
ltoes 3.29168
385
root 0.24366 17.7888 41.0877 -4.10074 -4.95046 -1.69636
lowerback 10.3482 1.87156 1.00418
upperback 0.355618 2.66066 0.955156
thorax -5.43218 1.29607 0.0376895
lowerneck -15.3344 -3.27195 -2.67079
upperneck 20.3727 -4.40512 2.28639
head 9.03279 -2.025 0.682595
rclavicle 6.21202e-018 -1.39149e-014
rhumerus -25.1347 -15.5493 -81.4747
rradius 32.3238
rwrist 6.77525
rhand -19.1201 24.5165
rfingers 7.12502
rthumb 7.18922 -5.34137
lclavicle 6.21202e-018 -1.39149e-014
lhumerus -36.7504 12.1122 77.1144
lradius 18.2467
lwrist 1.90828
lhand -32.2357 18.1344
lfingers 7.12502
lthumb -5.47635 48.0437
rfemur -9.19665 -3.38889 22.7536
rtibia 71.3251
rfoot 16.4176 -7.69257
rtoes 21.9759
lfemur -15.9254 -0.812785 -21.759
ltibia 30.5938
lfoot -7.73041 -1.74029
ltoes 3.87544
386
root 0.257761 17.8049 41.263 -4.24888 -4.43986 -1.04402
lowerback 10.4283 1.72891 0.507939
upperback 0.401189 2.40281 0.782425
thorax -5.44287 1.1795 0.17242
lowerneck -15.0526 -3.14488 -2.74902
upperneck 20.1437 -4.22872 2.37201
head 8.90136 -1.94318 0.751561
rclavicle -6.40304e-015 8.05078e-015
rhumerus -25.2928 -15.7665 -81.4455
rradius 32.1241
rwrist 7.05512
rhand -19.1546 24.5159
rfingers 7.12502
rthumb 7.15593 -5.34316
lclavicle -6.40304e-015 8.05078e-015
lhumerus -36.2767 11.1338 77.8253
lradius 18.7453
lwrist 3.10039
lhand -29.9893 19.8405
lfingers 7.12502
lthumb -3.30717 49.7946
rfemur -10.3861 -4.39485 21.8594
rtibia 72.4826
rfoot 13.7013 -8.69101
rtoes 21.0439
lfemur -14.9135 -1.05136 -22.6755
ltibia 30.2016
lfoot -8.20037 -1.74131
ltoes 3.98083
387
root 0.263859 17.8208 41.4438 -4.47307 -4.26634 -0.898382
lowerback 10.5321 1.63781 0.413924
upperback 0.515059 2.26812 0.750986
thorax -5.38348 1.11531 0.211376
lowerneck -14.9722 -3.06379 -2.76598
upperneck 19.9195 -4.11731 2.41501
head 8.80808 -1.88959 0.784446
rclavicle 4.27076e-016 7.45443e-015
rhumerus -25.3795 -16.3436 -81.4399
rradius 31.7718
rwrist 7.62765
rhand -19.2114 24.7953
rfingers 7.12502
rthumb 7.10109 -5.06553
lclavicle 4.27076e-016 7.45443e-015
lhumerus -35.7603 10.4913 78.232
lradius 19.0214
lwrist 3.9671
lhand -30.6567 20.0748
lfingers 7.12502
lthumb -3.95165 50.0179
rfemur -11.4269 -4.92827 21.6567
rtibia 73.3531
rfoot 11.2529 -9.73212
rtoes 22.8965
lfemur -13.7597 -1.04553 -22.9554
ltibia 29.7886
lfoot -8.70224 -1.61872
ltoes 3.61999
388
root 0.26318 17.8363 41.6135 -4.49282 -4.3548 -1.09955
lowerback 10.6488 1.58924 0.480921
upperback 0.472434 2.22005 0.872024
thorax -5.49596 1.09086 0.303144
lowerneck -14.9883 -3.08139 -2.7851
upperneck 20.0258 -4.12928 2.36722
head 8.84712 -1.90124 0.769374
rclavicle 7.20594e-016 -2.03754e-014
rhumerus -25.8666 -16.5572 -81.4358
rradius 31.8614
rwrist 7.81317
rhand -19.2186 24.4719
rfingers 7.12502
rthumb 7.09413 -5.38925
lclavicle 7.20594e-016 -2.03754e-014
lhumerus -35.3644 11.2966 77.7294
lradius 18.921
lwrist 2.29113
lhand -34.0597 14.6971
lfingers 7.12502
lthumb -7.23717 44.5534
rfemur -12.8166 -5.15553 22.0228
rtibia 73.9918
rfoot 9.37061 -10.2594
rtoes 25.2597
lfemur -12.9544 -0.940989 -22.7662
ltibia 29.5138
lfoot -9.13307 -1.52564
ltoes 4.00301
